<?xml version="1.0" standalone="no"?>
<!DOCTYPE svg PUBLIC "-//W3C//DTD SVG 1.1//EN" "http://www.w3.org/Graphics/SVG/1.1/DTD/svg11.dtd" >
<svg>
<metadata>
Created by FontForge 20090622 at Thu Jun  8 07:55:21 2017
 By deploy user
Copyright (c) 2015 by Luzi Type. All rights reserved.
</metadata>
<defs>
<font id="FaroTrial-BoldLucky" horiz-adv-x="578" >
  <font-face 
    font-family="Faro Trial Lucky"
    font-weight="700"
    font-stretch="normal"
    units-per-em="1000"
    panose-1="0 0 8 0 0 0 0 0 0 0"
    ascent="800"
    descent="-200"
    x-height="515"
    cap-height="700"
    bbox="-20 -222 886 969"
    underline-thickness="50"
    underline-position="-50"
    unicode-range="U+000D-U+02DD"
  />
<missing-glyph horiz-adv-x="467" 
 />
    <glyph glyph-name=".notdef" horiz-adv-x="467" 
 />
    <glyph glyph-name=".null" horiz-adv-x="0" 
 />
    <glyph glyph-name="nonmarkingreturn" horiz-adv-x="333" 
 />
    <glyph glyph-name="CR" unicode="&#xd;" horiz-adv-x="560" 
 />
    <glyph glyph-name="space" unicode=" " horiz-adv-x="260" 
 />
    <glyph glyph-name="comma" unicode="," horiz-adv-x="265" 
d="M118 121h107q0 -114 -41.5 -185t-138.5 -106l-45 98q64 28 91 71.5t27 121.5z" />
    <glyph glyph-name="period" unicode="." horiz-adv-x="215" 
d="M175 0h-135v137h135v-137z" />
    <glyph glyph-name="zero" unicode="0" horiz-adv-x="605" 
d="M302 700q130 0 201.5 -96t71.5 -260t-71.5 -259.5t-201.5 -95.5q-129 0 -200.5 96t-71.5 259q0 164 71.5 260t200.5 96zM302 115q75 0 109.5 57.5t34.5 171.5t-34.5 172t-109.5 58q-143 0 -143 -230q0 -229 143 -229z" />
    <glyph glyph-name="one" unicode="1" horiz-adv-x="397" 
d="M0 616q89 15 204 67l18 7h95v-690h-128v538q-72 -26 -162 -45z" />
    <glyph glyph-name="two" unicode="2" horiz-adv-x="562" 
d="M248 121h294v-121h-498v114l152 107q97 69 151.5 128.5t54.5 122.5q0 49 -29 76t-79 27q-48 0 -84 -25t-42 -77l-128 12q6 101 76 158t175 57q108 0 172.5 -60t64.5 -163q0 -88 -57 -164t-183 -164z" />
    <glyph glyph-name="three" unicode="3" horiz-adv-x="558" 
d="M304 415q108 0 171 -53t63 -144q0 -104 -68.5 -166.5t-186.5 -62.5q-112 0 -179 55t-67 154q0 26 4 49h123q-3 -23 -3 -38q0 -93 123 -93q66 0 97.5 26t31.5 72q0 61 -62 83t-190 9v116l157 142h-57q-151 0 -229 19l19 126q87 -19 210 -19h233v-111z" />
    <glyph glyph-name="four" unicode="4" horiz-adv-x="593" 
d="M474 256h99v-124h-99v-132h-128v133h-336v123l289 434h175v-434zM145 256h201v303z" />
    <glyph glyph-name="five" unicode="5" horiz-adv-x="582" 
d="M316 472q93 0 159.5 -61.5t66.5 -169.5q0 -104 -63.5 -178t-187.5 -74q-110 0 -176.5 61.5t-66.5 163.5q0 12 1 17h126q-1 -9 -1 -16q0 -50 31.5 -76.5t86.5 -26.5q59 0 91 31t32 87q0 60 -35 91.5t-89 31.5q-66 0 -117 -44h-113l38 381h168q125 0 210 20l20 -126
q-79 -20 -230 -20h-63l-15 -124q57 32 127 32z" />
    <glyph glyph-name="six" unicode="6" horiz-adv-x="581" 
d="M409 537q-31 40 -104 40q-142 0 -144 -180q48 69 157 69q104 0 168.5 -65t64.5 -171q0 -107 -66 -174t-173 -67q-127 0 -204.5 95.5t-77.5 261.5q0 163 71 258.5t207 95.5q129 0 193 -83zM424 229q0 56 -36.5 87t-85.5 31t-84.5 -31.5t-35.5 -86.5t35.5 -86t84.5 -31
q50 0 86 30.5t36 86.5z" />
    <glyph glyph-name="seven" unicode="7" horiz-adv-x="529" 
d="M230 700h299v-127q-139 -90 -197.5 -225t-58.5 -348h-137q0 370 228 573h-134q-152 0 -230 20l20 126q80 -19 210 -19z" />
    <glyph glyph-name="eight" unicode="8" horiz-adv-x="569" 
d="M432 356q47 -16 77 -58t30 -101q0 -95 -70.5 -151.5t-183.5 -56.5t-184 56.5t-71 151.5q0 59 30.5 101t76.5 58q-90 55 -90 151q0 88 66 140.5t172 52.5t172 -52.5t66 -140.5q0 -96 -91 -151zM285 576q-51 0 -81 -21.5t-30 -58.5q0 -36 29.5 -57.5t81.5 -21.5t81.5 21.5
t29.5 57.5q0 37 -30 58.5t-81 21.5zM285 113q60 0 94 25t34 71q0 45 -33 69.5t-95 24.5t-95 -24.5t-33 -69.5q0 -46 33.5 -71t94.5 -25z" />
    <glyph glyph-name="nine" unicode="9" horiz-adv-x="581" 
d="M262 223q-104 0 -168 64.5t-64 170.5q0 108 65.5 175t173.5 67q127 0 204.5 -96t77.5 -262q0 -162 -71.5 -257.5t-206.5 -95.5q-100 0 -161.5 50t-79.5 141h126q18 -68 117 -68q143 0 145 180q-48 -69 -158 -69zM157 460q0 -56 36 -87.5t85 -31.5t85 32t36 87t-35.5 86
t-85.5 31q-49 0 -85 -31t-36 -86z" />
    <glyph glyph-name="A" unicode="A" horiz-adv-x="719" 
d="M565 0l-64 164h-283l-64 -164h-144l284 700h132l283 -700h-144zM268 291h183l-92 234z" />
    <glyph glyph-name="B" unicode="B" horiz-adv-x="621" 
d="M491 366q43 -19 69 -61.5t26 -94.5q0 -95 -63.5 -152.5t-167.5 -57.5h-285v700h293q89 0 145 -54.5t56 -140.5q0 -97 -73 -139zM198 573v-147h149q40 0 62.5 20t22.5 56q0 71 -87 71h-147zM346 127q50 0 79 24t29 67q0 39 -26 60.5t-73 21.5h-157v-173h148z" />
    <glyph glyph-name="C" unicode="C" horiz-adv-x="712" 
d="M526 475q-16 48 -60 76.5t-105 28.5q-90 0 -142.5 -62t-52.5 -167q0 -102 52 -167t150 -65q80 0 130.5 40.5t50.5 118.5q0 19 -3 40h129q2 -26 2 -38q0 -137 -86 -214t-226 -77q-106 0 -182.5 51.5t-112 132t-35.5 178.5q0 161 91 260.5t238 99.5q105 0 182.5 -52
t105.5 -137z" />
    <glyph glyph-name="D" unicode="D" horiz-adv-x="697" 
d="M311 700q165 0 258 -91t93 -254q0 -166 -96.5 -260.5t-266.5 -94.5h-229v700h241zM306 127q109 0 166.5 58.5t57.5 169.5q0 107 -54.5 162.5t-160.5 55.5h-115v-446h106z" />
    <glyph glyph-name="E" unicode="E" horiz-adv-x="568" 
d="M200 127h333v-127h-463v700h244q128 0 210 18l19 -126q-78 -19 -229 -19h-114v-159h286v-127h-286v-160z" />
    <glyph glyph-name="F" unicode="F" horiz-adv-x="548" 
d="M486 287h-286v-287h-130v700h244q128 0 210 18l19 -126q-78 -19 -229 -19h-114v-159h286v-127z" />
    <glyph glyph-name="G" unicode="G" horiz-adv-x="725" 
d="M526 475q-16 48 -60 76.5t-105 28.5q-90 0 -142.5 -61.5t-52.5 -166.5q0 -113 58.5 -173t148.5 -60q70 0 115 35t50 85h-25q-149 0 -226 19l19 125q79 -19 207 -19h152v-364h-127v56q-58 -67 -172 -67q-145 0 -238 98.5t-93 262.5q0 162 91.5 261.5t237.5 99.5
q105 0 182.5 -52t105.5 -137z" />
    <glyph glyph-name="H" unicode="H" horiz-adv-x="704" 
d="M504 700h130v-700h-130v289h-304v-289h-130v700h130v-284h304v284z" />
    <glyph glyph-name="I" unicode="I" horiz-adv-x="270" 
d="M200 0h-130v700h130v-700z" />
    <glyph glyph-name="J" unicode="J" horiz-adv-x="509" 
d="M449 700v-502q0 -94 -58 -151.5t-160 -57.5q-94 0 -155.5 49t-61.5 139q0 25 2 44h129q-1 -8 -1 -23q0 -79 87 -79q88 0 88 86v368h-35q-152 0 -230 20l20 125q75 -18 210 -18h165z" />
    <glyph glyph-name="K" unicode="K" horiz-adv-x="652" 
d="M377 414l275 -414h-167l-202 309l-82 -93v-216h-131v700h131v-293l256 293h177z" />
    <glyph glyph-name="L" unicode="L" horiz-adv-x="495" 
d="M485 127v-127h-415v700h130v-573h285z" />
    <glyph glyph-name="M" unicode="M" horiz-adv-x="858" 
d="M631 700h157v-700h-128v425l-165 -425h-133l-164 425v-425h-128v700h157l202 -526z" />
    <glyph glyph-name="N" unicode="N" horiz-adv-x="729" 
d="M529 700h130v-700h-123l-336 466v-466h-130v700h123l336 -466v466z" />
    <glyph glyph-name="O" unicode="O" horiz-adv-x="734" 
d="M367 711q151 0 241.5 -100t90.5 -261t-90.5 -261t-241.5 -100q-152 0 -242 100t-90 261t90 261t242 100zM367 119q97 0 148.5 61t51.5 170t-51.5 169.5t-148.5 60.5q-98 0 -149.5 -60.5t-51.5 -169.5t51.5 -170t149.5 -61z" />
    <glyph glyph-name="P" unicode="P" horiz-adv-x="597" 
d="M335 700q119 0 183 -59t64 -156t-64 -160.5t-183 -63.5h-135v-261h-130v700h265zM341 388q53 0 81 25t28 68q0 42 -28 67t-81 25h-141v-185h141z" />
    <glyph glyph-name="Q" unicode="Q" horiz-adv-x="734" 
d="M595 75q59 -67 98 -96l-89 -97q-58 49 -121 125q-53 -18 -116 -18q-152 0 -242 100t-90 261t90 261t242 100q151 0 241.5 -100t90.5 -261q0 -176 -104 -275zM166 350q0 -109 51.5 -170t149.5 -61q16 0 23 1l-90 110l102 83l111 -137q54 60 54 174q0 109 -51.5 169.5
t-148.5 60.5q-98 0 -149.5 -60.5t-51.5 -169.5z" />
    <glyph glyph-name="R" unicode="R" horiz-adv-x="631" 
d="M473 0l-141 279h-132v-279h-130v700h271q117 0 179.5 -54.5t62.5 -153.5q0 -65 -31 -114.5t-89 -74.5l163 -303h-153zM200 573v-167h152q48 0 73.5 22.5t25.5 62.5q0 36 -26.5 59t-73.5 23h-151z" />
    <glyph glyph-name="S" unicode="S" horiz-adv-x="573" 
d="M543 207q0 -105 -72 -161.5t-174 -56.5q-69 0 -128 25t-99 79t-40 128q0 20 3 41h131q-2 -14 -2 -38q0 -51 41 -78.5t97 -27.5q47 0 79.5 20.5t32.5 59.5t-29.5 58.5t-83.5 33.5q-99 26 -131 41q-106 50 -106 171q0 104 66.5 156.5t160.5 52.5q78 0 140 -36.5t88 -102.5
l-118 -58q-14 33 -47 50.5t-70 17.5q-39 0 -64.5 -20t-25.5 -54q0 -16 5 -28.5t18.5 -23t22 -16.5t33.5 -13.5t33 -9.5l39 -10l54.5 -16t51.5 -22.5t49 -35.5t31 -51.5t14 -74.5z" />
    <glyph glyph-name="T" unicode="T" horiz-adv-x="590" 
d="M565 718l20 -126q-78 -19 -230 -19h-2v-573h-130v573h-218v127h350q127 0 210 18z" />
    <glyph glyph-name="U" unicode="U" horiz-adv-x="678" 
d="M618 700v-423q0 -133 -74 -210.5t-205 -77.5t-205 77.5t-74 210.5v423h130v-425q0 -156 149 -156t149 156v425h130z" />
    <glyph glyph-name="V" unicode="V" horiz-adv-x="626" 
d="M140 700l173 -512l173 512h135l-242 -700h-133l-241 700h135z" />
    <glyph glyph-name="W" unicode="W" horiz-adv-x="901" 
d="M751 700h135l-188 -700h-131l-116 437l-117 -437h-131l-188 700h135l119 -448l118 448h127l119 -448z" />
    <glyph glyph-name="X" unicode="X" horiz-adv-x="660" 
d="M645 700l-238 -350l238 -350h-158l-157 235l-157 -235h-158l238 350l-238 350h158l157 -235l157 235h158z" />
    <glyph glyph-name="Y" unicode="Y" horiz-adv-x="654" 
d="M644 700l-252 -428v-272h-130v272l-252 428h151l166 -293l167 293h150z" />
    <glyph glyph-name="Z" unicode="Z" horiz-adv-x="600" 
d="M211 127h364v-127h-540v109l350 464h-117q-152 0 -231 19l20 126q82 -18 211 -18h297v-109z" />
    <glyph glyph-name="grave" unicode="`" horiz-adv-x="268" 
d="M84 764q56 -68 184 -68v-108q-185 0 -268 102z" />
    <glyph glyph-name="a" unicode="a" horiz-adv-x="524" 
d="M44 390q17 66 73.5 100t141.5 34q96 0 153 -51t57 -137v-336h-123v41q-44 -47 -125 -47q-87 0 -141.5 49t-54.5 123q0 66 43.5 106.5t113.5 40.5h80q50 0 82 -17v45q0 31 -26 48.5t-62 17.5q-43 0 -66 -14t-30 -47zM240 107q47 0 75.5 18.5t28.5 48.5q0 31 -36 31h-124
q-36 0 -36 -36q0 -62 92 -62z" />
    <glyph glyph-name="b" unicode="b" 
d="M322 524q106 0 168.5 -72.5t62.5 -191.5t-63 -192.5t-168 -73.5q-89 0 -139 61v-55h-123v700h125v-232q50 56 137 56zM306 118q59 0 90 37.5t31 104.5t-31 104t-90 37q-56 0 -88.5 -37t-32.5 -104t32.5 -104.5t88.5 -37.5z" />
    <glyph glyph-name="c" unicode="c" horiz-adv-x="515" 
d="M476 406l-104 -70q-31 64 -100 64q-121 0 -121 -138q0 -68 31 -106t89 -38q46 0 69.5 23t23.5 65q0 14 -1 22h126q1 -10 1 -28q0 -92 -58.5 -149t-158.5 -57q-117 0 -182.5 72.5t-65.5 193.5q0 122 67 193t182 71q62 0 115.5 -29.5t86.5 -88.5z" />
    <glyph glyph-name="d" unicode="d" 
d="M393 700h125v-700h-123v55q-51 -61 -139 -61q-105 0 -168 73.5t-63 192.5t62.5 191.5t168.5 72.5q88 0 137 -57v233zM272 118q56 0 88.5 37.5t32.5 104.5t-32.5 104t-88.5 37q-59 0 -90 -37t-31 -104t31 -104.5t90 -37.5z" />
    <glyph glyph-name="e" unicode="e" horiz-adv-x="504" 
d="M476 210h-225q-47 0 -103 9q6 -54 32.5 -82t81.5 -28q89 0 92 64h117q-1 -79 -59.5 -129t-151.5 -50q-109 0 -172 70.5t-63 193.5q0 121 63 193.5t172 72.5q103 0 161 -66t58 -182q0 -32 -3 -66zM259 407q-91 0 -110 -82q40 -12 102 -12h103q0 45 -25 69.5t-70 24.5z" />
    <glyph glyph-name="f" unicode="f" horiz-adv-x="365" 
d="M370 411q-79 -16 -142 -17v-394h-125v394h-103v121h103v8q0 83 42 130t116 47h106v-124h-92q-24 0 -35.5 -12t-11.5 -42v-7q42 1 126 15z" />
    <glyph glyph-name="g" unicode="g" horiz-adv-x="538" 
d="M367 89q78 0 121.5 -36t43.5 -102q0 -82 -67.5 -127.5t-190.5 -45.5q-122 0 -185.5 44t-63.5 116q0 75 60 99q-46 29 -46 91q0 77 66 106q-30 47 -30 105q0 82 55 133.5t144 51.5q67 0 114 -29q42 11 42 82h118q0 -122 -89 -161q15 -34 15 -77q0 -82 -55 -134t-145 -52
q-51 0 -94 19q-30 -10 -30 -44q0 -39 39 -39h178zM274 411q-39 0 -60 -19.5t-21 -52.5q0 -34 21.5 -53.5t59.5 -19.5t60 20t22 53t-22 52.5t-60 19.5zM274 -115q136 0 136 61q0 17 -13.5 25.5t-47.5 8.5h-160q-42 0 -42 -35q0 -32 31 -46t96 -14z" />
    <glyph glyph-name="h" unicode="h" horiz-adv-x="556" 
d="M317 524q93 0 138.5 -51t45.5 -140v-333h-125v325q0 75 -87 75q-104 0 -104 -116v-284h-125v700h125v-227q45 51 132 51z" />
    <glyph glyph-name="i" unicode="i" horiz-adv-x="249" 
d="M190 580h-131v131h131v-131zM187 0h-125v515h125v-515z" />
    <glyph glyph-name="j" unicode="j" horiz-adv-x="254" 
d="M199 580h-131v131h131v-131zM-20 -211v124h33q30 0 44 14.5t14 51.5v536h125v-550q0 -82 -42.5 -129t-116.5 -47h-57z" />
    <glyph glyph-name="k" unicode="k" horiz-adv-x="548" 
d="M543 515l-207 -201l207 -314h-154l-145 226l-59 -57v-169h-125v700h125v-368l183 183h175z" />
    <glyph glyph-name="l" unicode="l" horiz-adv-x="245" 
d="M185 0h-125v700h125v-700z" />
    <glyph glyph-name="m" unicode="m" horiz-adv-x="846" 
d="M593 524q90 0 144 -52t54 -135v-337h-125v327q0 71 -85 71q-93 0 -93 -85v-313h-125v327q0 71 -85 71q-46 0 -69.5 -22t-23.5 -61v-315h-125v515h125v-35q47 44 123 44q49 0 86.5 -19t52.5 -52q18 34 57.5 52.5t88.5 18.5z" />
    <glyph glyph-name="n" unicode="n" horiz-adv-x="556" 
d="M317 524q93 0 138.5 -51t45.5 -140v-333h-125v325q0 75 -87 75q-104 0 -104 -116v-284h-125v515h125v-42q45 51 132 51z" />
    <glyph glyph-name="o" unicode="o" horiz-adv-x="530" 
d="M505 259q0 119 -65 192t-175 73q-109 0 -174.5 -73t-65.5 -192t65.5 -192t174.5 -73t174.5 73t65.5 192zM379 259q0 -68 -29 -104.5t-85 -36.5t-85 37t-29 104q0 68 29 104.5t85 36.5q114 0 114 -141z" />
    <glyph glyph-name="p" unicode="p" 
d="M322 524q106 0 168.5 -72.5t62.5 -189.5q0 -118 -62.5 -190t-168.5 -72q-88 0 -137 57v-268h-125v726h125v-48q49 57 137 57zM306 124q59 0 90 36t31 102t-31 102.5t-90 36.5q-56 0 -88.5 -36.5t-32.5 -102.5q0 -65 32.5 -101.5t88.5 -36.5z" />
    <glyph glyph-name="q" unicode="q" 
d="M256 524q88 0 137 -57v48h125v-726h-125v268q-49 -57 -137 -57q-106 0 -168.5 72t-62.5 190q0 117 62.5 189.5t168.5 72.5zM272 124q56 0 88.5 36.5t32.5 101.5q0 66 -32.5 102.5t-88.5 36.5q-59 0 -90 -36.5t-31 -102.5t31 -102t90 -36z" />
    <glyph glyph-name="r" unicode="r" horiz-adv-x="358" 
d="M296 519h52v-124h-57q-53 0 -79.5 -26.5t-26.5 -72.5v-296h-125v515h125v-40q39 44 111 44z" />
    <glyph glyph-name="s" unicode="s" horiz-adv-x="459" 
d="M277 310q26 -5 43 -9t42 -15t40 -25.5t26 -39.5t11 -58q0 -84 -59 -126.5t-142 -42.5q-82 0 -145 42t-63 128q0 9 2 27h118q-2 -10 -2 -16q0 -33 26 -49.5t70 -16.5q73 0 73 44q0 35 -60 48q-7 1 -39 7q-26 5 -43 9t-43 15t-41.5 26t-27 41t-11.5 59q0 78 52.5 122
t130.5 44q58 0 107.5 -25t78.5 -75l-99 -65q-22 48 -86 48q-63 0 -63 -41q0 -25 24 -35.5t73 -19.5q5 -1 7 -1z" />
    <glyph glyph-name="t" unicode="t" horiz-adv-x="375" 
d="M228 189q0 -37 14 -51t43 -14h68v-124h-92q-74 0 -116 47t-42 129v218h-103v121h103v122h125v-122q31 1 109 14l18 -118q-64 -14 -127 -17v-205z" />
    <glyph glyph-name="u" unicode="u" horiz-adv-x="553" 
d="M368 515h125v-515h-125v46q-46 -52 -131 -52q-91 0 -136.5 52t-45.5 140v329h125v-329q0 -32 22 -50t63 -18q103 0 103 117v280z" />
    <glyph glyph-name="v" unicode="v" horiz-adv-x="525" 
d="M520 515l-197 -515h-121l-197 515h135l122 -338l122 338h136z" />
    <glyph glyph-name="w" unicode="w" horiz-adv-x="795" 
d="M655 515h135l-171 -515h-123l-99 314l-98 -314h-123l-171 515h135l97 -317l98 317h125l98 -317z" />
    <glyph glyph-name="x" unicode="x" horiz-adv-x="526" 
d="M521 0h-158l-100 151l-101 -151h-157l182 258l-180 257h157l99 -148l98 148h158l-180 -257z" />
    <glyph glyph-name="y" unicode="y" horiz-adv-x="524" 
d="M384 515h135l-206 -568q-30 -81 -71.5 -110t-112.5 -29h-80v124h73q33 0 48 11.5t25 40.5l7 20l-197 511h141l120 -332z" />
    <glyph glyph-name="z" unicode="z" horiz-adv-x="485" 
d="M465 121v-121h-421v104l238 290h-33q-149 0 -229 15l18 121q19 -5 43 -8.5t54 -5t46.5 -2t49.5 -0.5l33 1h186v-104l-238 -290h253z" />
    <glyph glyph-name="dieresis" unicode="&#xa8;" horiz-adv-x="320" 
d="M0 588v121h118v-121h-118zM202 588v121h118v-121h-118z" />
    <glyph glyph-name="macron" unicode="&#xaf;" horiz-adv-x="298" 
d="M298 588h-298v93h298v-93z" />
    <glyph glyph-name="acute" unicode="&#xb4;" horiz-adv-x="268" 
d="M184 764l84 -74q-83 -102 -268 -102v108q128 0 184 68z" />
    <glyph glyph-name="cedilla" unicode="&#xb8;" horiz-adv-x="212" 
d="M112 -41q46 -3 73 -23t27 -55q0 -36 -29 -60t-79 -24q-61 0 -104 37l32 48q35 -28 68 -28q21 0 33 8.5t12 20.5q0 18 -22.5 30t-67.5 12l12 81h45v-47z" />
    <glyph glyph-name="circumflex" unicode="&#x2c6;" horiz-adv-x="357" 
d="M237 588l-59 73l-58 -73h-120l145 183h68l144 -183h-120z" />
    <glyph glyph-name="caron" unicode="&#x2c7;" horiz-adv-x="357" 
d="M120 770l59 -73l58 73h120l-145 -183h-68l-144 183h120z" />
    <glyph glyph-name="breve" unicode="&#x2d8;" horiz-adv-x="272" 
d="M264 781q8 -27 8 -59q0 -58 -35.5 -96t-100.5 -38t-100.5 38t-35.5 96q0 27 8 59l93 -23q-7 -21 -7 -33q0 -45 42 -45t42 45q0 9 -6 33z" />
    <glyph glyph-name="dotaccent" unicode="&#x2d9;" horiz-adv-x="138" 
d="M138 588h-135v137h135v-137z" />
    <glyph glyph-name="ring" unicode="&#x2da;" horiz-adv-x="230" 
d="M0 703q0 52 32.5 84.5t81.5 32.5q51 0 83.5 -32.5t32.5 -84.5q0 -50 -32.5 -82.5t-83.5 -32.5q-49 0 -81.5 32.5t-32.5 82.5zM164 703q0 22 -13 36t-36 14t-36 -14t-13 -36t13 -36.5t36 -14.5t36 14.5t13 36.5z" />
    <glyph glyph-name="ogonek" unicode="&#x2db;" horiz-adv-x="139" 
d="M139 -107v-62q-58 6 -98.5 37.5t-40.5 75.5t37 67h54q-32 -24 -32 -56q0 -28 23.5 -43.5t56.5 -18.5z" />
    <glyph glyph-name="tilde" unicode="&#x2dc;" horiz-adv-x="345" 
d="M345 739q-1 -73 -31.5 -112t-79.5 -39q-31 0 -67.5 20.5t-48.5 20.5q-15 0 -24 -11t-9 -25h-85q0 71 30.5 110.5t80.5 39.5q33 0 71 -21t49 -21q30 0 32 38h82z" />
    <glyph glyph-name="hungarumlaut" unicode="&#x2dd;" horiz-adv-x="304" 
d="M63 797l92 -33l-65 -176l-90 32zM213 797l91 -33l-65 -176l-90 32z" />
    <glyph glyph-name="acute.cap" horiz-adv-x="268" 
d="M184 944l84 -74q-84 -102 -268 -102v108q128 0 184 68z" />
    <glyph glyph-name="breve.cap" horiz-adv-x="272" 
d="M264 969q8 -25 8 -58q0 -58 -35.5 -96.5t-100.5 -38.5t-100.5 38.5t-35.5 96.5q0 28 8 58l93 -23q-7 -19 -7 -33q0 -44 42 -44t42 44q0 11 -6 33z" />
    <glyph glyph-name="caron.cap" horiz-adv-x="357" 
d="M237 950h120l-144 -183h-68l-145 183h120l58 -73z" />
    <glyph glyph-name="cedilla.cap" horiz-adv-x="212" 
d="M112 -41q46 -3 73 -23t27 -55q0 -36 -29 -60t-79 -24q-61 0 -104 37l32 48q35 -28 68 -28q21 0 33 8.5t12 20.5q0 18 -22.5 30t-67.5 12l12 81h45v-47z" />
    <glyph glyph-name="circumflex.cap" horiz-adv-x="357" 
d="M237 767l-59 73l-58 -73h-120l145 183h68l144 -183h-120z" />
    <glyph glyph-name="dieresis.cap" horiz-adv-x="320" 
d="M0 776v122h118v-122h-118zM202 776v122h118v-122h-118z" />
    <glyph glyph-name="dotaccent.cap" horiz-adv-x="138" 
d="M138 776h-135v137h135v-137z" />
    <glyph glyph-name="grave.cap" horiz-adv-x="268" 
d="M84 944q56 -68 184 -68v-108q-184 0 -268 102z" />
    <glyph glyph-name="hungarumlaut.cap" horiz-adv-x="369" 
d="M94 950l75 -63l-95 -111l-74 61zM295 950l74 -62l-95 -112l-73 62z" />
    <glyph glyph-name="macron.cap" horiz-adv-x="298" 
d="M298 776h-298v94h298v-94z" />
    <glyph glyph-name="ring.cap" horiz-adv-x="208" 
d="M0 847q0 46 29 74.5t73 28.5q46 0 76 -28.5t30 -74.5t-30 -75.5t-76 -29.5q-44 0 -73 29.5t-29 75.5zM150 847q0 21 -13 34.5t-34 13.5t-33 -13.5t-12 -34.5q0 -22 12 -36t33 -14t34 14.5t13 35.5z" />
    <glyph glyph-name="tilde.cap" horiz-adv-x="345" 
d="M345 923q-1 -73 -31.5 -112t-79.5 -39q-31 0 -67.5 20.5t-48.5 20.5q-15 0 -24 -11t-9 -25h-85q0 70 30.5 109.5t80.5 39.5q33 0 71 -21t49 -21q13 0 22 10.5t10 28.5h82z" />
    </font>
</defs>
</svg>
